PathFileType  4	(X/Y/Z) C:\Users\antoi\Documents\MyRepositories\mobilecap\ResultsAnalysis
DataRate	CameraRate	NumFrames	NumMarkers	Units	OrigDataRate	OrigDataStartFrame	OrigNumFrames
100.0	100.0	4	51	mm	100.0	140	371
Frame#	Time	r_knee			r_shank_antsup			r_ankle			r_calc			r_5meta			r_toe			L_knee			L_shank_antsup			L_ankle			L_calc			L_5meta			L_toe			r_sh2			r_sh3			r_sh4			L_sh2			L_sh3			r_thigh1			r_thigh2			r_thigh3			r_thigh4			r_thigh5			L_thigh1			L_thigh2			L_thigh3			L_thigh4			r.ASIS			r.PSIS			L.ASIS			L.PSIS			C7			R_Shoulder			L_Shoulder			R_Sternum			L_Sternum			R_humerus			R_elbow_med			R_elbow_lat			R_forearm			R_wrist_radius			R_wrist_ulna			L_humerus			L_elbow_med			L_elbow_lat			L_forearm			L_wrist_radius			L_wrist_ulna			R_HJC			L_HJC			R_HJC_reg			L_HJC_reg			
		X1	Y1	Z1	X2	Y2	Z2	X3	Y3	Z3	X4	Y4	Z4	X5	Y5	Z5	X6	Y6	Z6	X7	Y7	Z7	X8	Y8	Z8	X9	Y9	Z9	X10	Y10	Z10	X11	Y11	Z11	X12	Y12	Z12	X13	Y13	Z13	X14	Y14	Z14	X15	Y15	Z15	X16	Y16	Z16	X17	Y17	Z17	X18	Y18	Z18	X19	Y19	Z19	X20	Y20	Z20	X21	Y21	Z21	X22	Y22	Z22	X23	Y23	Z23	X24	Y24	Z24	X25	Y25	Z25	X26	Y26	Z26	X27	Y27	Z27	X28	Y28	Z28	X29	Y29	Z29	X30	Y30	Z30	X31	Y31	Z31	X32	Y32	Z32	X33	Y33	Z33	X34	Y34	Z34	X35	Y35	Z35	X36	Y36	Z36	X37	Y37	Z37	X38	Y38	Z38	X39	Y39	Z39	X40	Y40	Z40	X41	Y41	Z41	X42	Y42	Z42	X43	Y43	Z43	X44	Y44	Z44	X45	Y45	Z45	X46	Y46	Z46	X47	Y47	Z47	X48	Y48	Z48	X49	Y49	Z49	X50	Y50	Z50	X51	Y51	Z51	

140	1.39000000	-1107.84252	751.23123	-428.79854	-1095.21047	632.43527	-444.76443	-1251.54142	399.50587	-464.12169	-1302.39303	357.79811	-516.27208	-1144.27134	350.73241	-424.51680	-1105.93846	368.34923	-466.09399	-1100.12046	755.64334	-735.51026	-1085.38598	638.32403	-694.55230	-1255.41736	398.18973	-724.68481	-1306.58612	362.78965	-685.87898	-1141.97855	347.72129	-745.72255	-1102.56779	366.23173	-692.44527	-1142.81138	530.61047	-460.55126	-1150.12917	648.40434	-395.03880	-1210.45365	557.08237	-417.01973	-1127.63677	678.04173	-762.63648	-1179.43038	567.73274	-775.27140	-1098.76636	1062.14225	-420.77519	-1067.67420	958.04610	-419.93179	-1104.10483	919.65068	-380.14359	-1198.18385	1031.57698	-384.38389	-1160.75746	920.32565	-380.81864	-1104.77247	1044.38814	-758.59698	-1058.34623	916.85517	-753.65393	-1211.35542	1015.99955	-785.15762	-1161.49486	883.73760	-770.27126	-1079.60254	1171.34982	-464.35235	-1227.65548	1286.46486	-530.93671	-1075.79597	1172.18627	-704.45650	-1230.62453	1288.22446	-648.32892	-1015.86852	1686.72152	-585.31182	-971.99457	1633.15172	-430.90335	-963.54711	1636.38128	-741.31165	-920.27819	1594.31869	-564.63210	-917.71602	1590.25220	-605.85001	-995.69629	1505.35156	-369.08072	-1135.35720	1351.21797	-412.19935	-1105.11361	1346.11570	-344.18645	-1109.84093	1221.39733	-320.63993	-1129.61204	1117.98721	-317.57893	-1159.75617	1129.05994	-296.23737	-989.00516	1485.09587	-798.74592	-1120.18047	1332.15296	-752.68699	-1093.21983	1334.09918	-822.86480	-1082.55501	1237.51509	-845.24965	-1104.51620	1105.80043	-841.87749	-1128.62260	1112.35746	-862.82743	-1190.86460	1143.64809	-489.45672	-1185.67097	1139.01534	-678.70323	-1170.35643	1139.26106	-495.96302	-1174.36278	1141.63515	-654.38927	
141	1.40000000	-1104.09033	749.62742	-428.77115	-1092.34849	630.81775	-444.67262	-1251.22284	399.97649	-463.84862	-1302.40959	357.84189	-516.24461	-1144.22294	350.54243	-424.41902	-1105.85565	367.99939	-466.01176	-1097.21047	753.30163	-736.10672	-1082.51277	636.67204	-694.42370	-1255.01647	398.28661	-724.39218	-1306.56611	362.73643	-685.37014	-1141.91373	347.70940	-745.72450	-1102.44461	365.97332	-692.43239	-1141.11857	529.56940	-460.49976	-1146.92066	647.23511	-394.87496	-1208.34226	556.64473	-417.18560	-1124.31654	676.81339	-762.46311	-1177.20856	566.97637	-774.78818	-1096.25467	1060.55488	-420.44502	-1064.40665	956.04296	-420.82840	-1100.72142	917.88892	-380.21247	-1195.26418	1029.26936	-383.81331	-1157.21555	918.78094	-380.71024	-1100.19037	1044.62990	-759.42762	-1054.89983	915.24261	-753.59209	-1207.99912	1014.29125	-784.88523	-1157.82701	882.10048	-769.93511	-1075.57297	1169.82607	-463.54481	-1223.78877	1284.99149	-530.63424	-1071.99840	1171.45736	-704.30559	-1226.72322	1286.84111	-648.33680	-1011.59449	1684.74085	-585.02444	-967.68377	1631.00139	-430.62642	-958.67346	1634.19926	-741.04740	-915.75209	1592.52319	-564.34911	-913.17095	1588.36280	-605.60848	-990.24359	1502.79078	-369.39659	-1127.90185	1346.61889	-412.14955	-1097.50061	1342.15729	-344.10450	-1100.07971	1217.19828	-321.20935	-1117.24638	1113.51328	-318.08937	-1147.94301	1124.22061	-296.52698	-982.31525	1482.71248	-798.29765	-1111.63610	1327.86877	-753.54226	-1084.16697	1330.23146	-823.40764	-1071.75607	1233.63878	-845.20151	-1091.79432	1103.52716	-843.36723	-1115.52164	1107.70843	-862.75816	-1186.92354	1142.16090	-489.30903	-1181.56325	1137.83298	-678.56100	-1166.54542	1137.83360	-495.32813	-1170.50576	1140.32982	-654.18391	
142	1.41000000	-1100.28515	747.99646	-428.71912	-1089.38392	629.09700	-444.76161	-1250.64536	399.43181	-464.58468	-1302.34458	357.94169	-516.25481	-1144.14592	350.34018	-424.33812	-1105.76057	367.66147	-465.93784	-1094.38454	750.41101	-737.00020	-1079.53445	634.86311	-694.09357	-1254.63108	398.42641	-724.18186	-1306.51690	362.66981	-684.81742	-1141.85281	347.69879	-745.73694	-1102.37189	365.68715	-692.41906	-1139.28712	528.40982	-460.52459	-1143.65634	645.94940	-394.88986	-1206.13561	556.05935	-417.20459	-1120.95508	675.50487	-762.11904	-1175.00821	566.15956	-774.34172	-1092.38899	1059.02126	-420.19247	-1060.45540	954.44943	-420.72982	-1097.05355	916.06926	-380.41193	-1191.67947	1027.25097	-383.27247	-1153.25148	917.11265	-380.56366	-1096.07445	1043.89485	-759.79522	-1051.25167	913.53761	-753.62136	-1204.22088	1012.48566	-784.46270	-1154.05188	880.36022	-769.60322	-1071.05204	1168.54111	-462.64471	-1219.77861	1283.44936	-530.37863	-1067.71914	1169.78802	-704.16509	-1222.61546	1285.37755	-648.24632	-1007.39587	1682.91732	-584.60038	-963.42065	1628.84214	-430.39982	-953.89591	1632.09861	-740.70790	-911.24126	1590.77836	-564.06122	-908.45829	1586.55423	-605.44306	-984.79302	1500.33034	-369.61409	-1119.98418	1341.72065	-412.31614	-1089.64611	1338.12548	-344.01012	-1090.01325	1212.80606	-321.74146	-1104.74726	1108.72641	-319.01451	-1135.41397	1118.84459	-297.13988	-975.66861	1480.46333	-798.01590	-1103.07152	1323.50268	-754.68121	-1074.56389	1326.02490	-823.11634	-1060.47543	1229.93130	-845.50025	-1078.15066	1100.68028	-844.72788	-1101.69398	1103.02107	-862.74857	-1182.58663	1140.79203	-488.81293	-1177.23545	1136.14757	-678.05770	-1162.31032	1135.85697	-494.66531	-1166.14594	1138.46362	-654.01965	
143	1.42000000	-1096.36567	746.32293	-428.66874	-1086.35269	627.26104	-444.97841	-1249.93160	398.38037	-465.75996	-1302.14971	358.09287	-516.25133	-1144.04992	350.08407	-424.27690	-1105.65671	367.33591	-465.88329	-1090.73011	748.11870	-737.08995	-1076.46231	632.89145	-693.63265	-1254.24748	398.52178	-723.96619	-1306.44889	362.70684	-684.45221	-1141.78561	347.67469	-745.73550	-1102.26002	365.40094	-692.33256	-1137.40811	527.17418	-460.51748	-1140.36089	644.61189	-394.93420	-1203.84432	555.38270	-417.06903	-1117.58442	674.14589	-761.69041	-1172.82902	565.42709	-774.10064	-1087.29150	1057.27497	-420.15216	-1056.38652	952.90559	-420.41095	-1093.05165	914.28929	-380.48721	-1187.51139	1025.60348	-382.94465	-1149.10375	915.51253	-380.62786	-1092.13617	1042.11389	-759.48887	-1047.16370	911.73721	-753.53518	-1200.13153	1010.76557	-784.12960	-1150.02999	878.63624	-769.40914	-1066.83062	1166.90046	-462.25712	-1215.61440	1281.83804	-530.23373	-1063.59114	1167.53314	-703.91093	-1218.38671	1283.82511	-648.12594	-1003.15691	1681.11809	-584.27780	-959.16162	1626.74375	-430.24574	-949.20596	1629.94254	-740.40320	-906.76404	1589.10662	-563.87761	-903.90380	1584.82518	-605.23209	-979.34242	1498.06703	-369.73914	-1112.31358	1336.91418	-412.31949	-1081.51028	1334.06535	-343.93269	-1079.12386	1208.56736	-322.07353	-1091.73052	1103.83739	-320.18878	-1121.92039	1113.17501	-298.01893	-969.02706	1478.35992	-797.82424	-1094.22056	1318.89265	-755.49267	-1064.50018	1321.52725	-822.40611	-1048.63914	1226.42855	-845.93991	-1062.97407	1096.67861	-845.24605	-1087.10155	1098.49421	-862.85421	-1178.51873	1139.28047	-488.40809	-1173.22436	1134.25610	-677.64469	-1158.23828	1133.83296	-494.36890	-1161.98774	1136.52018	-653.80936	
